<mxfile host="app.diagrams.net" agent="Mozilla/5.0 (X11; Ubuntu; Linux x86_64; rv:143.0) Gecko/20100101 Firefox/143.0" version="28.2.0">
  <diagram name="Page-1" id="86DyE4iFojEXtG5Y-RKm">
    <mxGraphModel dx="794" dy="439" grid="1" gridSize="10" guides="1" tooltips="1" connect="1" arrows="1" fold="1" page="1" pageScale="1" pageWidth="850" pageHeight="1100" math="0" shadow="0">
      <root>
        <mxCell id="0" />
        <mxCell id="1" parent="0" />
        <mxCell id="yMwmE3qfdgWV35wLSOWw-24" style="edgeStyle=orthogonalEdgeStyle;rounded=0;orthogonalLoop=1;jettySize=auto;html=1;exitX=1;exitY=0.5;exitDx=0;exitDy=0;entryX=0;entryY=0.5;entryDx=0;entryDy=0;" edge="1" parent="1" source="yMwmE3qfdgWV35wLSOWw-14" target="yMwmE3qfdgWV35wLSOWw-15">
          <mxGeometry relative="1" as="geometry" />
        </mxCell>
        <mxCell id="yMwmE3qfdgWV35wLSOWw-14" value="Start" style="rounded=1;whiteSpace=wrap;html=1;fillColor=#d5e8d4;strokeColor=#82b366;" vertex="1" parent="1">
          <mxGeometry y="20" width="80" height="40" as="geometry" />
        </mxCell>
        <mxCell id="yMwmE3qfdgWV35wLSOWw-25" style="edgeStyle=orthogonalEdgeStyle;rounded=0;orthogonalLoop=1;jettySize=auto;html=1;exitX=1;exitY=0.5;exitDx=0;exitDy=0;entryX=0;entryY=0.5;entryDx=0;entryDy=0;" edge="1" parent="1" source="yMwmE3qfdgWV35wLSOWw-15" target="yMwmE3qfdgWV35wLSOWw-16">
          <mxGeometry relative="1" as="geometry" />
        </mxCell>
        <mxCell id="yMwmE3qfdgWV35wLSOWw-15" value="&lt;div&gt;Summarize all data&lt;/div&gt;" style="rounded=0;whiteSpace=wrap;html=1;fillColor=#dae8fc;strokeColor=#6c8ebf;" vertex="1" parent="1">
          <mxGeometry x="100" width="80" height="80" as="geometry" />
        </mxCell>
        <mxCell id="yMwmE3qfdgWV35wLSOWw-26" style="edgeStyle=orthogonalEdgeStyle;rounded=0;orthogonalLoop=1;jettySize=auto;html=1;exitX=1;exitY=0.5;exitDx=0;exitDy=0;entryX=0;entryY=0.5;entryDx=0;entryDy=0;" edge="1" parent="1" source="yMwmE3qfdgWV35wLSOWw-16" target="yMwmE3qfdgWV35wLSOWw-17">
          <mxGeometry relative="1" as="geometry" />
        </mxCell>
        <mxCell id="yMwmE3qfdgWV35wLSOWw-16" value="Convert summarized data to data lines" style="rounded=0;whiteSpace=wrap;html=1;fillColor=#dae8fc;strokeColor=#6c8ebf;" vertex="1" parent="1">
          <mxGeometry x="200" width="80" height="80" as="geometry" />
        </mxCell>
        <mxCell id="yMwmE3qfdgWV35wLSOWw-27" style="edgeStyle=orthogonalEdgeStyle;rounded=0;orthogonalLoop=1;jettySize=auto;html=1;exitX=1;exitY=0.5;exitDx=0;exitDy=0;entryX=0;entryY=0.5;entryDx=0;entryDy=0;" edge="1" parent="1" source="yMwmE3qfdgWV35wLSOWw-17" target="yMwmE3qfdgWV35wLSOWw-18">
          <mxGeometry relative="1" as="geometry" />
        </mxCell>
        <mxCell id="yMwmE3qfdgWV35wLSOWw-17" value="Calculate cumulated values" style="rounded=0;whiteSpace=wrap;html=1;fillColor=#dae8fc;strokeColor=#6c8ebf;" vertex="1" parent="1">
          <mxGeometry x="300" width="80" height="80" as="geometry" />
        </mxCell>
        <mxCell id="yMwmE3qfdgWV35wLSOWw-28" style="edgeStyle=orthogonalEdgeStyle;rounded=0;orthogonalLoop=1;jettySize=auto;html=1;exitX=1;exitY=0.5;exitDx=0;exitDy=0;entryX=0;entryY=0.5;entryDx=0;entryDy=0;" edge="1" parent="1" source="yMwmE3qfdgWV35wLSOWw-18" target="yMwmE3qfdgWV35wLSOWw-19">
          <mxGeometry relative="1" as="geometry" />
        </mxCell>
        <mxCell id="yMwmE3qfdgWV35wLSOWw-18" value="Interpolate missing values" style="rounded=0;whiteSpace=wrap;html=1;fillColor=#dae8fc;strokeColor=#6c8ebf;" vertex="1" parent="1">
          <mxGeometry x="400" width="80" height="80" as="geometry" />
        </mxCell>
        <mxCell id="yMwmE3qfdgWV35wLSOWw-29" style="edgeStyle=orthogonalEdgeStyle;rounded=0;orthogonalLoop=1;jettySize=auto;html=1;exitX=1;exitY=0.5;exitDx=0;exitDy=0;entryX=0;entryY=0.5;entryDx=0;entryDy=0;" edge="1" parent="1" source="yMwmE3qfdgWV35wLSOWw-19" target="yMwmE3qfdgWV35wLSOWw-23">
          <mxGeometry relative="1" as="geometry" />
        </mxCell>
        <mxCell id="yMwmE3qfdgWV35wLSOWw-19" value="Generate analysis result" style="rounded=0;whiteSpace=wrap;html=1;fillColor=#dae8fc;strokeColor=#6c8ebf;" vertex="1" parent="1">
          <mxGeometry x="500" width="80" height="80" as="geometry" />
        </mxCell>
        <mxCell id="yMwmE3qfdgWV35wLSOWw-23" value="End" style="rounded=1;whiteSpace=wrap;html=1;fillColor=#d5e8d4;strokeColor=#82b366;" vertex="1" parent="1">
          <mxGeometry x="600" y="20" width="80" height="40" as="geometry" />
        </mxCell>
      </root>
    </mxGraphModel>
  </diagram>
</mxfile>
